<svg width="144" height="144" viewBox="0 0 144 144" fill="none" xmlns="http://www.w3.org/2000/svg">
<g clip-path="url(#clip0_535_156)">
<rect width="144" height="144" fill="black"/>
<path d="M0.00273381 0H144V144.031L72 40L0.00273381 0Z" fill="white"/>
<path d="M72 40L-0.03125 144.031L43.7866 144L72 40Z" fill="white"/>
<path d="M72 40C70.8018 39.9132 69.6037 39.8264 68.4055 39.7396C46.8388 38.1773 25.272 36.615 3.70528 35.0526C2.50713 34.9658 1.30897 34.879 0.110822 34.7923C0.130691 38.5195 0.150559 42.2467 0.170428 45.9739C1.36759 45.8743 2.56474 45.7747 3.7619 45.6752C25.3108 43.883 46.8596 42.0909 68.4085 40.2987C69.6057 40.1991 70.8028 40.0996 72 40Z" fill="white"/>
<path d="M72.0013 39.9999C70.5774 40.5934 69.1536 41.1868 67.7298 41.7803C42.1006 52.463 16.4714 63.1456 -9.15782 73.8283C-10.5817 74.4218 -12.0055 75.0153 -13.4294 75.6088C-9.47124 82.4648 -5.51313 89.3208 -1.55502 96.1769C-0.32908 95.2406 0.89685 94.3043 2.1228 93.368C24.1897 76.5149 46.2566 59.6618 68.3235 42.8087C69.5494 41.8724 70.7753 40.9362 72.0013 39.9999Z" fill="white"/>
</g>
<defs>
<clipPath id="clip0_535_156">
<rect width="144" height="144" fill="white"/>
</clipPath>
</defs>
</svg>
